<svg xmlns="http://www.w3.org/2000/svg" viewBox="0 0 69.24 42.49"><defs><style>.cls-1{fill:#a3c1d1}.cls-2{fill:#475d9c}</style></defs><title>Asset 1</title><g id="Layer_2" data-name="Layer 2"><g id="Layer_2-2" data-name="Layer 2"><path d="M56.19,42.49h-5v-2h5Zm-10,0h-5v-2h5Zm-10,0h-5v-2h5ZM26,42.42a7.07,7.07,0,0,1-4.78-3.05l1.67-1.11a5,5,0,0,0,3.41,2.18Zm-3.8-8.15-1.95-.48a7,7,0,0,1,3.48-4.47l.95,1.76A5,5,0,0,0,22.24,34.27Zm18-3.79H39.12v-2h1.14a4.42,4.42,0,0,0,2.88-1.08l1.31,1.5A6.33,6.33,0,0,1,40.26,30.48Zm-6.14,0h-5v-2h5Zm10.5-6.72a4.41,4.41,0,0,0-2-3.36l1.07-1.69a6.37,6.37,0,0,1,3,4.9Zm-6.34-4h-5v-2h5Zm-10,0h-5v-2h5Zm-10,0h-5v-2h5Z" class="cls-1"/><path d="M6.5,19.14l5.57-9.32A6.49,6.49,0,0,0,6.5,0h0A6.49,6.49,0,0,0,.93,9.82Z" class="cls-2"/><circle cx="6.5" cy="6.82" r="2.22" class="cls-1"/><path d="M62.74,41.19l5.57-9.32a6.49,6.49,0,0,0-5.57-9.82h0a6.49,6.49,0,0,0-5.57,9.82Z" class="cls-2"/><circle cx="62.74" cy="28.87" r="2.22" class="cls-1"/></g></g></svg>