<svg xmlns="http://www.w3.org/2000/svg" viewBox="0 0 47.17 46.58"><defs><style>.cls-1{fill:#475d9c}.cls-2{fill:#3c5082}.cls-3{fill:#546fb5}.cls-4{fill:#bfbfdd}.cls-5{fill:#a8a8c1}.cls-6{fill:#d4d4f4}.cls-7{fill:#a3c1d1}.cls-8{fill:#8faab5}.cls-9{fill:#b8d9e8}</style></defs><title>Asset 3</title><g id="Layer_2" data-name="Layer 2"><g id="Layer_2-2" data-name="Layer 2"><polygon points="33.93 26.45 33.93 44.71 20.68 39.69 20.68 21.42 33.93 26.45" class="cls-1"/><polygon points="47.17 21.42 47.17 39.69 33.93 44.71 33.93 26.45 47.17 21.42" class="cls-2"/><polygon points="47.17 21.42 33.93 26.45 20.68 21.42 33.93 16.4 47.17 21.42" class="cls-3"/><polygon points="13.24 28.31 13.24 46.58 0 41.55 0 23.29 13.24 28.31" class="cls-4"/><polygon points="26.48 23.29 26.48 41.55 13.24 46.58 13.24 28.31 26.48 23.29" class="cls-5"/><polygon points="26.48 23.29 13.24 28.31 0 23.29 13.24 18.27 26.48 23.29" class="cls-6"/><polygon points="23.61 10.05 23.61 28.31 10.36 23.29 10.36 5.02 23.61 10.05" class="cls-7"/><polygon points="36.85 5.02 36.85 23.29 23.61 28.31 23.61 10.05 36.85 5.02" class="cls-8"/><polygon points="36.85 5.02 23.61 10.05 10.36 5.02 23.61 0 36.85 5.02" class="cls-9"/></g></g></svg>